# xmcd
#
# Track frame offsets: 
#        225
#        11539
#        22553
#        33437
#        44840
#        59997
#        73955
#        93660
#        110345
#        122611
#        131497
#        144545
#        159316
#        169438
#        183747
#        195156
#        206706
#        218961
#
# Disc length: 3208 seconds
#
# Revision: 1
# Processed by: cddbd v1.5.2PL0 Copyright (c) Steve Scherf et al.
# Submitted via: ExactAudioCopy v0.99pb5
#
DISCID=100c8512
DTITLE=Various Artist - U SILNICE E55
DYEAR=2001
DGENRE=Country
TTITLE0=HONZA VYCÍTAL - Vem Me K Vám (Take Me Home) (2000)
TTITLE1=ROBERT KREST´AN - Sest Bílych Koní (Six White Horses) (1995)
TTITLE2=YVONNE PRENOSILOVÁ - On Je Cvok (He´s My Rock) (1993)
TTITLE3=PAVEL BOBEK and GREENHORNS - Erie Canal (1999)
TTITLE4=KAREL CERNOCH - Do Basy Nechci (2000)
TTITLE5=MIREK HOFFMANN A ZELENÁCI - Mám Kovboje Cejch (1996)
TTITLE6=ROBERT KREST´AN A DRUHÁ TRÁVA - Víla (1994)
TTITLE7=PETRA CERNOCKÁ - Vrat Mi Zpet Muj Smích (Give Me Back My Love)
TTITLE7=(1999)
TTITLE8=VRÁT`A VYSKOCIL A TAXMENI - Lilly Marlene (Lili Marlen) (1997)
TTITLE9=GREENHORNS ZP. FRANTISEK DONÁTH - Bar, Co Má Línej Harry (Lazy
TTITLE9=Harry) (1994)
TTITLE10=SCHOVANKY, ZP. JANA TRCKOVÁ - Síla Má Jev Síle Volantu (1997)
TTITLE11=JIRÍ WEISSER - Bam-Bam-Bam (Bum, Bum, Bum) (2000)
TTITLE12=GREENHORNS, ZP. TOMÁS LINKA - Dzek Blesk Z Gandegáj (Flash Ja
TTITLE12=ck From Gundagai) (1992)
TTITLE13=MIREK HOFFMANN A ZELENÁCI - U Silnice E-55 (Down The Road I G
TTITLE13=o) (1997)
TTITLE14=SCHOVANKY, ZP. JANA TRCKOVÁ - Diggi Liggy (Diggy Liggy Lo´) (
TTITLE14=1998)
TTITLE15=PAVEL BOBEK - Tam, Kde Lezí Phoenix (By The Time I Get To Pho
TTITLE15=enix) (1996)
TTITLE16=VRÁT`A VYSKOCIL A TAXMENI - Bitva O New Orleans (Battle Of Ne
TTITLE16=w Orleans) (1994)
TTITLE17=GOLEM A HOSTÉ - Jed Dál, Tom Dooley (1993)
EXTD=YEAR: 2001
EXTT0=
EXTT1=
EXTT2=
EXTT3=
EXTT4=
EXTT5=
EXTT6=
EXTT7=
EXTT8=
EXTT9=
EXTT10=
EXTT11=
EXTT12=
EXTT13=
EXTT14=
EXTT15=
EXTT16=
EXTT17=
PLAYORDER=
